PathFileType	4	(X/Y/Z)	 s09c0102.trc
DataRate	CameraRate	NumFrames	NumMarkers	Units	OrigDataRate	OrigDataStartFrame	OrigNumFrames
200	200	5	50	mm	200	1501	2000
Frame#	Time	racr			lacr			c7			jug			rlel			rdr			llel			ldr			s2			lic			ric			lasi			rasi			rpsi			lpsi			rgt			lgt			rth1			rth2			rth3			rth4			rlfc			rmfc			rsh1			rsh2			rsh3			rsh4			rlmal			rmmal			rcal			rtoe			rmt5			lth1			lth2			lth4			lth3			llfc			lmfc			llmal			lmmal			lcal			lmt5			lsh1			lsh2			lsh3			lsh4			ltoe			SBIKE			LBIKE			RBIKE			
		X1	Y1	Z1	X2	Y2	Z2	X3	Y3	Z3	X4	Y4	Z4	X5	Y5	Z5	X6	Y6	Z6	X7	Y7	Z7	X8	Y8	Z8	X9	Y9	Z9	X10	Y10	Z10	X11	Y11	Z11	X12	Y12	Z12	X13	Y13	Z13	X14	Y14	Z14	X15	Y15	Z15	X16	Y16	Z16	X17	Y17	Z17	X18	Y18	Z18	X19	Y19	Z19	X20	Y20	Z20	X21	Y21	Z21	X22	Y22	Z22	X23	Y23	Z23	X24	Y24	Z24	X25	Y25	Z25	X26	Y26	Z26	X27	Y27	Z27	X28	Y28	Z28	X29	Y29	Z29	X30	Y30	Z30	X31	Y31	Z31	X32	Y32	Z32	X33	Y33	Z33	X34	Y34	Z34	X35	Y35	Z35	X36	Y36	Z36	X37	Y37	Z37	X38	Y38	Z38	X39	Y39	Z39	X40	Y40	Z40	X41	Y41	Z41	X42	Y42	Z42	X43	Y43	Z43	X44	Y44	Z44	X45	Y45	Z45	X46	Y46	Z46	X47	Y47	Z47	X48	Y48	Z48	X49	Y49	Z49	X50	Y50	Z50	
1501	7.5050	506.779164	1227.895499	-31.799224	588.676241	1204.644123	-320.921212	524.004676	1261.933795	-140.088968	493.615708	1122.449201	-185.384571	520.416101	1008.804666	88.053287	705.416080	877.665159	-19.511530	535.495113	1043.186136	-540.174339	695.930705	883.992419	-439.087965	40.434502	1139.141296	-265.765289	187.303695	1114.106598	-398.498613	167.721964	1144.184527	-106.737405	216.433909	1057.997295	-367.554664	210.843770	1093.209375	-119.522729	66.187684	1173.443229	-206.670900	78.709454	1169.991899	-315.595450	154.989568	1042.466350	-50.105760	128.204911	977.835020	-431.751704	278.516732	993.435821	-65.798415	365.622510	989.500802	-76.613893	437.715509	939.437249	-74.764496	373.915706	1013.200609	-103.075047	521.174915	866.860880	-105.132686	507.888796	843.442562	-205.792857	457.879185	786.517894	-74.849611	430.506411	701.477051	-85.046879	365.766833	642.252226	-81.076309	452.808580	688.900179	-115.745050	309.325177	552.077775	-77.691087	308.932293	564.058650	-155.858520	223.029102	531.431626	-111.425992	480.823817	476.780623	-132.473933	401.725776	474.039882	-62.750950	192.148059	853.276044	-430.185506	251.613537	792.281715	-427.845322	285.137114	809.405105	-420.999866	273.816935	704.955399	-419.762890	303.523293	612.501228	-400.641334	320.414762	595.975556	-304.713685	124.983270	293.544842	-406.985577	150.738551	293.929771	-337.518044	54.133824	279.655815	-367.629186	195.035142	179.044396	-429.132026	253.926152	528.229890	-423.178300	234.043701	444.556241	-413.821859	173.180194	379.683166	-411.855265	258.541356	434.565589	-384.369266	286.255010	161.562664	-360.262192	-64.983929	853.296605	-237.981032	20.723633	85.158599	-441.848924	21.141043	84.103508	-43.658404	
1502	7.5100	508.198310	1227.524191	-33.387934	587.691399	1204.398248	-323.334587	523.466938	1262.148047	-141.036721	493.636292	1122.412916	-187.465813	521.448791	1008.851657	87.444636	705.455665	877.785532	-19.591567	533.760753	1041.438897	-541.049782	695.582462	883.987620	-439.454671	39.786322	1139.591772	-263.232655	185.120214	1114.744117	-397.255278	168.580787	1144.322986	-104.411434	214.691699	1058.525337	-366.618946	211.351583	1093.239634	-118.343381	66.143828	1173.687997	-204.343015	77.528923	1170.659466	-313.370074	155.312891	1040.965824	-48.945531	126.500999	978.671761	-430.617532	279.048983	990.345084	-64.835087	365.825915	985.566575	-75.825523	437.377931	934.122085	-75.509850	374.625003	1009.242195	-102.116052	521.773475	860.052441	-107.783276	506.621899	837.757193	-206.500461	458.286434	779.185591	-74.677490	432.403421	693.799262	-84.934342	368.747386	633.448717	-80.674283	454.534021	681.805170	-116.068497	314.256845	542.050154	-77.593243	313.163566	554.340092	-155.452472	228.223229	518.641569	-110.920308	487.737490	473.692038	-132.486532	409.176301	467.925315	-62.007652	191.976643	854.655905	-428.983089	252.441231	794.628313	-427.505794	285.738397	812.170878	-421.350327	276.116167	707.589024	-419.816117	306.881360	615.252131	-401.044999	323.900732	599.001983	-305.226592	119.610433	301.354261	-406.652940	145.755161	301.119434	-337.152376	48.514771	289.141425	-367.073695	186.992312	185.451695	-428.935117	254.944973	532.329743	-423.435448	232.766552	449.243336	-413.888401	170.091383	386.042924	-411.631952	256.905412	438.685343	-384.367346	277.899870	165.704316	-360.140195	-64.960214	853.303337	-237.901009	20.731598	85.191819	-441.839844	21.132760	84.103668	-43.647421	
1503	7.5150	509.683989	1227.055212	-35.147187	586.589617	1204.188073	-326.150774	524.477006	1261.761108	-143.996738	493.386591	1122.358463	-189.498779	521.998608	1009.404250	86.873244	705.513773	877.734233	-19.751493	531.826872	1039.600673	-542.109244	695.119546	884.014572	-439.785929	39.040294	1139.956813	-260.722481	182.868671	1115.322530	-395.966190	169.274433	1143.973196	-102.713307	212.849344	1059.071080	-365.695701	212.003642	1093.010902	-117.113571	66.027394	1173.740965	-201.973134	76.390191	1171.177888	-311.031398	155.629175	1039.144490	-47.774081	125.095094	979.210822	-429.085633	279.398389	986.711599	-63.945768	366.025587	980.770183	-75.212727	437.069310	928.614432	-74.932788	375.217334	1004.610171	-101.545399	520.617774	855.338105	-106.851754	504.650253	830.504921	-206.630429	458.501651	771.255458	-74.628003	434.175766	685.169634	-85.058628	371.591250	623.826581	-80.472396	456.194900	673.999032	-116.259356	319.068712	531.620193	-77.298489	317.690096	544.083071	-155.450280	233.382732	505.277956	-110.634767	494.571677	469.725880	-132.171392	415.951134	460.834395	-61.895490	192.222633	856.279088	-427.820434	253.683564	797.209098	-427.139189	286.698082	815.257653	-421.314413	278.838768	710.570985	-420.061199	310.617818	618.232959	-401.531297	327.566859	602.246187	-305.771321	114.705056	309.742769	-406.262157	141.034242	308.891484	-336.726608	43.472969	299.175539	-366.451184	179.295795	192.406736	-428.745675	256.389046	536.581736	-423.583571	231.858971	454.176347	-413.767005	167.421787	392.834425	-411.380393	255.704642	442.972725	-384.188117	269.879718	170.396302	-360.141007	-64.933806	853.332901	-237.784016	20.722811	85.247221	-441.823986	21.113471	84.116553	-43.648581	
1504	7.5200	511.241451	1226.534715	-37.107308	585.321283	1204.140602	-329.434336	525.447901	1261.464174	-147.294786	493.255775	1122.331241	-191.749390	522.165418	1010.260174	86.280183	705.710953	878.384201	-19.745611	529.877770	1037.526595	-543.220732	694.629533	883.961332	-440.196731	38.330499	1140.033329	-258.138412	180.518014	1115.869864	-394.759167	170.220914	1143.492574	-100.742240	211.044204	1059.543637	-364.808948	212.593792	1092.664671	-115.892089	65.911704	1173.589237	-199.603172	75.064472	1171.300156	-308.660850	155.809910	1036.903570	-46.837637	123.667828	979.793979	-427.901765	279.742260	982.300436	-63.160852	366.213099	975.503471	-74.775533	436.431408	922.238126	-74.758062	375.643371	1000.700951	-99.946000	517.804408	847.376561	-106.227538	502.804934	823.041095	-206.632182	458.537042	762.684874	-74.782946	435.738626	676.108615	-85.233728	374.346903	613.690442	-80.360570	457.619203	665.496177	-116.674151	324.170567	519.943740	-77.876471	321.911635	533.256653	-155.236952	238.520175	491.584233	-110.397374	500.820552	464.942219	-131.961676	422.530980	453.380809	-61.596645	192.839570	858.080169	-427.000796	255.319336	800.070949	-426.663727	288.047221	818.652398	-421.018096	281.982932	713.874769	-420.443554	314.734089	621.378701	-402.087675	331.433980	605.662810	-306.367178	110.011023	318.417385	-406.037468	136.768321	317.115804	-336.290755	38.906515	309.650230	-365.708197	172.033732	199.867725	-428.513116	258.144530	541.127894	-423.808442	231.374934	459.631241	-413.809472	165.208999	400.006363	-411.099722	254.820272	447.715591	-384.084689	262.277337	175.617242	-360.218086	-64.873337	853.357812	-237.640764	20.695042	85.257972	-441.768372	21.133908	84.098826	-43.626199	
1505	7.5250	512.859485	1225.847762	-39.194831	583.882337	1204.045193	-333.096691	526.404240	1261.121131	-150.919531	493.233233	1122.199534	-194.197953	522.544394	1010.700208	85.508779	705.343829	878.190778	-19.903191	527.780675	1035.326179	-544.483370	694.189607	883.893800	-440.769041	37.551146	1139.959376	-255.483930	178.041370	1116.033101	-393.524704	170.342132	1142.990678	-99.524134	209.193171	1059.937987	-364.052053	213.166304	1092.096702	-114.760230	65.752288	1173.184289	-197.178560	73.745132	1171.637005	-306.264629	156.133012	1034.437997	-45.879967	122.400921	980.319022	-426.803189	280.027842	977.741763	-62.013388	366.234890	969.700803	-73.856360	435.746329	915.163881	-74.926005	376.163087	994.984285	-98.849119	516.338908	839.063858	-107.733550	500.799536	815.093313	-206.760438	458.445088	753.561191	-75.091350	437.121743	666.727210	-85.538357	376.925327	603.112049	-80.406823	458.913398	656.759769	-117.246729	328.722453	508.804053	-77.569131	325.956115	522.167783	-155.171035	243.629553	477.696007	-110.323212	506.722060	459.370298	-131.835703	428.656961	445.208224	-61.217750	193.858838	860.077210	-426.328644	257.309043	803.339798	-426.161074	289.623898	822.438844	-420.270191	285.461124	717.404750	-420.810718	318.889350	624.662750	-402.785408	335.639991	609.409558	-306.903444	106.005651	327.703938	-405.673229	133.060768	325.751806	-335.816441	34.846452	320.469916	-365.084550	165.351364	207.786560	-428.324113	260.049097	545.897598	-423.770967	231.164283	465.272602	-413.908021	163.307610	407.554866	-410.815960	254.280649	452.833625	-384.056809	255.127443	181.340867	-360.247379	-64.793612	853.409051	-237.501268	20.698212	85.338358	-441.757104	21.161922	84.070412	-43.617352	
